<svg xmlns="http://www.w3.org/2000/svg" data-name="Layer 1" viewBox="0 0 500 500" x="0px" y="0px" fill="#9c9c9c"><title>Fine line</title><path fill="grey" d="M411.09,53.89h-219c-13.06,0-23.25,3.62-30.28,10.75s-10.36,17.06-10.17,29.77v22.23H89.22c-25.9,0-40.75,14.86-40.75,40.76v156c0,25.71,14.85,40.45,40.75,40.45h7.4v85.69A10,10,0,0,0,114,446.23l83.7-92.41H308.25a54.75,54.75,0,0,0,7.85-.4c12.68-1.58,22-7.48,27.34-17.08l42.83,47.43a10,10,0,0,0,17.42-6.7v-86h7.39c25.7,0,40.44-14.74,40.44-40.45V94.34C451.54,68.64,436.79,53.89,411.09,53.89ZM313.57,333.58l-.22,0a37.26,37.26,0,0,1-5.1.21h-115a10,10,0,0,0-7.41,3.29l-69.27,76.47V343.82a10,10,0,0,0-10-10H89.22c-14.94,0-20.75-5.73-20.75-20.45v-156c0-14.94,5.82-20.76,20.75-20.76h62.39V250.53c-.36,23,11.72,37.6,33.18,40.13a46,46,0,0,0,7.27.4H302.57l25.73,28.51C326.68,329.78,321.2,332.65,313.57,333.58Zm118-83c0,14.71-5.73,20.45-20.44,20.45H393.7a10,10,0,0,0-10,10v70l-37.57-41.6h0l-31.68-35.11a10,10,0,0,0-7.42-3.3h-115a29.38,29.38,0,0,1-4.28-.18l-.5-.07c-11.35-1.29-15.89-7.09-15.67-20,0-.06,0-.11,0-.17V94.34c0-.05,0-.1,0-.16C171.5,87,173,81.78,176,78.68s8.52-4.79,16-4.79h219c14.71,0,20.44,5.73,20.44,20.45Z"/></svg>